<?xml version="1.0" encoding="utf-8"?>
<!-- Generator: Adobe Illustrator 26.0.1, SVG Export Plug-In . SVG Version: 6.00 Build 0)  -->
<svg version="1.1" id="Layer_1" xmlns="http://www.w3.org/2000/svg" xmlns:xlink="http://www.w3.org/1999/xlink" x="0px"
	y="0px" viewBox="0 0 48 48" style="enable-background:new 0 0 48 48;" xml:space="preserve">
	<style type="text/css">
		.st0 {
			fill: #E22424;
		}

		.st1 {
			fill: #DD3A3A;
		}

		.st2 {
			fill: none;
			stroke: #000000;
			stroke-width: 4;
			stroke-miterlimit: 10;
		}

		.st3 {
			fill: #FFFFFF;
		}
	</style>
	<circle class="st0" cx="24" cy="24" r="21" />
	<path class="st1" d="M38.85,38.85c8.2-8.2,8.2-21.5,0-29.7s-21.5-8.2-29.7,0L38.85,38.85z" />
	<circle class="st2" cx="24" cy="24" r="21" />
	<g>
		<path class="st3" d="M24.04,38.35c-1.14,0-2.07-0.37-2.82-1.09c-0.74-0.73-1.12-1.59-1.12-2.59c0-1.03,0.37-1.89,1.12-2.58
		c0.74-0.69,1.68-1.03,2.82-1.03s2.06,0.34,2.78,1.03c0.72,0.69,1.07,1.55,1.07,2.58c0,1-0.36,1.87-1.07,2.59
		C26.1,37.99,25.18,38.35,24.04,38.35z M21.49,28.14L20.27,9.65h7.5l-1.26,18.49H21.49z" />
	</g>
</svg>