<?xml version="1.0" encoding="utf-8"?>
<!-- Generator: Adobe Illustrator 26.0.1, SVG Export Plug-In . SVG Version: 6.00 Build 0)  -->
<svg version="1.1" id="Layer_1" xmlns="http://www.w3.org/2000/svg" xmlns:xlink="http://www.w3.org/1999/xlink" x="0px"
	y="0px" viewBox="0 0 48 48" style="enable-background:new 0 0 48 48;" xml:space="preserve">
	<style type="text/css">
		.st0 {
			fill: #999999;
		}
	</style>
	<path class="st0" d="M41,24c-0.02,0-0.05,0-0.07,0c0.04-0.33,0.07-0.66,0.07-1c0-4.42-3.58-8-8-8c-1.64,0-3.15,0.49-4.42,1.34
	C26.56,12.57,22.58,10,18,10c-6.63,0-12,5.37-12,12c0,0.7,0.07,1.38,0.19,2.05C2.71,24.45,0,27.41,0,31c0,3.87,3.13,7,7,7h34
	c3.87,0,7-3.13,7-7C48,27.13,44.87,24,41,24z" />
</svg>