<?xml version="1.0" encoding="utf-8"?>
<!-- Generator: Adobe Illustrator 26.0.1, SVG Export Plug-In . SVG Version: 6.00 Build 0)  -->
<svg version="1.1" id="Layer_1" xmlns="http://www.w3.org/2000/svg" xmlns:xlink="http://www.w3.org/1999/xlink" x="0px"
	y="0px" viewBox="0 0 48 48" style="enable-background:new 0 0 48 48;" xml:space="preserve">
	<style type="text/css">
		.st0 {
			fill: #BA67F4;
			stroke: #4BD0EF;
			stroke-width: 3;
			stroke-linecap: round;
			stroke-linejoin: round;
			stroke-miterlimit: 10;
		}

		.st1 {
			fill: #688CF2;
			stroke: #4BD0EF;
			stroke-width: 3;
			stroke-linecap: round;
			stroke-linejoin: round;
			stroke-miterlimit: 10;
		}

		.st2 {
			fill: #66F78E;
			stroke: #4BD0EF;
			stroke-width: 3;
			stroke-linecap: round;
			stroke-linejoin: round;
			stroke-miterlimit: 10;
		}

		.st3 {
			fill: none;
			stroke: #4BD0EF;
			stroke-width: 2;
			stroke-linecap: round;
			stroke-linejoin: round;
		}

		.st4 {
			fill: none;
			stroke: #4BD0EF;
			stroke-width: 2;
			stroke-linecap: round;
			stroke-linejoin: round;
			stroke-dasharray: 3.6087, 3.6087;
		}

		.st5 {
			fill: none;
			stroke: #4BD0EF;
			stroke-width: 2;
			stroke-linecap: round;
			stroke-linejoin: round;
			stroke-dasharray: 3.8873, 3.8873;
		}
	</style>
	<polygon class="st0" points="43,35.25 43,12.75 23.52,1.5 4.03,12.75 4.03,35.25 23.52,46.5 " />
	<polygon class="st1" points="43,35.25 43,12.75 23.52,24.94 23.52,46.5 " />
	<polygon class="st2" points="43,12.75 23.52,1.5 4.03,12.75 23.52,24.94 " />
	<g>
		<g>
			<line class="st3" x1="4.03" y1="35.25" x2="5.8" y2="34.31" />
			<line class="st4" x1="8.99" y1="32.62" x2="20.15" y2="26.72" />
			<polyline class="st3" points="21.75,25.87 23.52,24.94 23.52,22.94 		" />
			<line class="st5" x1="23.52" y1="19.05" x2="23.52" y2="5.44" />
			<line class="st3" x1="23.52" y1="3.5" x2="23.52" y2="1.5" />
		</g>
	</g>
	<g>
		<g>
			<line class="st3" x1="43" y1="35.25" x2="41.23" y2="34.31" />
			<line class="st4" x1="38.04" y1="32.62" x2="26.88" y2="26.72" />
			<line class="st3" x1="25.28" y1="25.87" x2="23.52" y2="24.94" />
		</g>
	</g>
</svg>